<svg id="Layer_1" data-name="Layer 1" xmlns="http://www.w3.org/2000/svg" viewBox="0 0 1000 1000"><defs><style>.cls-1{fill:#563b2a;}</style></defs><title>pinterest</title><path class="cls-1" d="M975,500c0,262.4-212.6,475-475,475a473.1,473.1,0,0,1-140.58-21.26c19.34-31.6,48.27-83.32,59-124.5,5.75-22.22,29.5-113,29.5-113,15.51,29.5,60.72,54.59,108.79,54.59,143.27,0,246.5-131.77,246.5-295.53C803.2,318.43,675.06,201,510.34,201,305.4,201,196.42,338.54,196.42,488.51c0,69.72,37.16,156.48,96.34,184.06,9,4.21,13.79,2.3,15.9-6.32,1.53-6.51,9.58-38.88,13.22-53.82,1.15-4.79.57-9-3.26-13.6-19.34-23.94-35.05-67.61-35.05-108.41,0-104.77,79.29-206.09,214.52-206.09,116.64,0,198.43,79.49,198.43,193.26,0,128.52-64.93,217.58-149.4,217.58-46.54,0-81.59-38.5-70.29-85.81,13.41-56.5,39.26-117.41,39.26-158.21,0-36.39-19.54-66.84-60.14-66.84-47.69,0-86,49.22-86,115.3,0,42.14,14.17,70.48,14.17,70.48s-46.93,198.81-55.54,236c-9.58,41-5.75,98.83-1.72,136.37C150.26,873.3,25,701.3,25,500,25,237.6,237.6,25,500,25S975,237.6,975,500Z"/></svg>