<svg id="Layer_1" data-name="Layer 1" xmlns="http://www.w3.org/2000/svg" viewBox="0 0 1000 1000"><defs><style>.cls-1{fill:#563b2a;}</style></defs><title>tele</title><path class="cls-1" d="M500,25C237.66,25,25,237.66,25,500S237.66,975,500,975,975,762.34,975,500,762.34,25,500,25ZM720.17,348c-7.15,75.11-38.08,257.38-53.82,341.5-6.66,35.59-19.77,47.53-32.46,48.7-27.58,2.54-48.53-18.23-75.25-35.74-41.81-27.4-65.42-44.46-106-71.21-46.9-30.9-16.49-47.88,10.23-75.66,7-7.26,128.53-117.81,130.88-127.84.29-1.25.57-5.94-2.21-8.4s-6.88-1.63-9.84-1q-6.29,1.43-200.36,132.43-28.43,19.52-51.51,19c-17-.37-49.58-9.59-73.84-17.47-29.75-9.67-53.39-14.78-51.33-31.2Q206.28,508.39,240,495q207.71-90.5,277-119.32c131.91-54.87,159.32-64.4,177.19-64.72,3.93-.07,12.72.91,18.41,5.53a20,20,0,0,1,6.76,12.86A83.82,83.82,0,0,1,720.17,348Z"/></svg>