<svg id="Layer_1" data-name="Layer 1" xmlns="http://www.w3.org/2000/svg" viewBox="0 0 1000 1000"><defs><style>.cls-1{fill:#563b2a;}</style></defs><title>tiktok</title><path class="cls-1" d="M915.61,414.58a389.86,389.86,0,0,1-227.85-72.85V673.43C687.69,840,552.58,975.06,386,975S84.33,839.82,84.39,673.21,219.57,371.57,386.18,371.63a301.68,301.68,0,0,1,41.31,2.86V541.32a138.49,138.49,0,1,0,96.94,132.11V25H687.76a224.9,224.9,0,0,0,3.45,41.15h0A226.76,226.76,0,0,0,791.26,215a225.37,225.37,0,0,0,124.35,37.38Z"/></svg>