<svg width="200" height="201" viewBox="0 0 200 201" fill="none" xmlns="http://www.w3.org/2000/svg">
<rect width="200" height="200" fill="#F1F1F1"/>
<circle cx="100" cy="62" r="38" fill="#383431"/>
<path fill-rule="evenodd" clip-rule="evenodd" d="M185 200.002C185 153.21 162.875 113.175 131.554 96.7962C128.267 95.0768 124.35 96.3011 121.75 98.9477C115.629 105.178 107.933 108.888 99.575 108.888C91.3299 108.888 83.73 105.278 77.6502 99.1998C75.0213 96.5717 71.0858 95.3789 67.8086 97.1332C36.8256 113.719 15 153.528 15 200.002H185Z" fill="#383431"/>
<path d="M101.406 124.631C102.049 124.242 102.049 123.308 101.406 122.919L85.7227 113.434C85.0562 113.031 84.2052 113.511 84.2052 114.29V133.26C84.2052 134.039 85.0562 134.519 85.7227 134.116L101.406 124.631Z" fill="#CFF1E7"/>
<path d="M98.5943 124.631C97.951 124.242 97.951 123.308 98.5943 122.919L114.277 113.434C114.944 113.031 115.795 113.511 115.795 114.29V133.26C115.795 134.039 114.944 134.519 114.277 134.116L98.5943 124.631Z" fill="#CFF1E7"/>
<path fill-rule="evenodd" clip-rule="evenodd" d="M94.6462 129.913C93.9062 129.681 93.806 128.704 94.3237 128.127C95.407 126.918 96.0574 125.371 96.0574 123.684C96.0574 121.997 95.407 120.45 94.3237 119.241C93.806 118.664 93.9062 117.688 94.6462 117.455C96.2131 116.962 97.9899 116.684 99.8729 116.684C101.756 116.684 103.533 116.962 105.1 117.455C105.84 117.687 105.94 118.664 105.422 119.241C104.339 120.45 103.688 121.997 103.688 123.684C103.688 125.371 104.339 126.918 105.422 128.127C105.94 128.704 105.84 129.681 105.1 129.913C103.533 130.406 101.756 130.684 99.8729 130.684C97.9899 130.684 96.2131 130.406 94.6462 129.913Z" fill="#72C2A9"/>
</svg>
